<?xml version="1.0" encoding="UTF-8"?>
<!DOCTYPE svg PUBLIC "-//W3C//DTD SVG 1.1//EN" "http://www.w3.org/Graphics/SVG/1.1/DTD/svg11.dtd">
<svg xmlns="http://www.w3.org/2000/svg" version="1.1" width="890px" height="280px" style="shape-rendering:geometricPrecision; text-rendering:geometricPrecision; image-rendering:optimizeQuality; fill-rule:evenodd; clip-rule:evenodd" xmlns:xlink="http://www.w3.org/1999/xlink">
<g><path style="opacity:1" fill="#fcc610" d="M 104.5,-0.5 C 111.5,-0.5 118.5,-0.5 125.5,-0.5C 132.1,1.88556 138.266,5.2189 144,9.5C 144.432,10.6001 143.932,11.2668 142.5,11.5C 140.218,12.2234 137.884,12.5567 135.5,12.5C 130.056,11.9678 124.389,11.8011 118.5,12C 119.328,12.9147 120.328,13.5814 121.5,14C 119.649,14.8372 117.816,15.6705 116,16.5C 111.062,14.3626 105.895,12.6959 100.5,11.5C 99.263,11.5565 98.263,12.0565 97.5,13C 98.8333,13.6667 100.167,14.3333 101.5,15C 102.696,15.6543 102.696,16.1543 101.5,16.5C 97.7502,15.8191 94.0835,14.8191 90.5,13.5C 85.0638,15.0372 79.3971,16.0372 73.5,16.5C 83.1373,9.51565 93.4707,3.84898 104.5,-0.5 Z"/></g>
<g><path style="opacity:1" fill="#fcb515" d="M 135.5,12.5 C 126.322,16.3143 117.322,20.6476 108.5,25.5C 109.007,24.1411 110.007,23.1411 111.5,22.5C 110.167,22.1667 108.833,21.8333 107.5,21.5C 100.677,23.3725 94.5107,24.0392 89,23.5C 85.0254,22.9439 81.1921,21.9439 77.5,20.5C 75.399,20.6316 73.899,21.6316 73,23.5C 72.6667,23.1667 72.3333,22.8333 72,22.5C 71.5814,23.6721 70.9147,24.6721 70,25.5C 68.5002,23.5313 66.6669,22.198 64.5,21.5C 67.2402,19.4405 70.2402,17.7738 73.5,16.5C 79.3971,16.0372 85.0638,15.0372 90.5,13.5C 94.0835,14.8191 97.7502,15.8191 101.5,16.5C 102.696,16.1543 102.696,15.6543 101.5,15C 100.167,14.3333 98.8333,13.6667 97.5,13C 98.263,12.0565 99.263,11.5565 100.5,11.5C 105.895,12.6959 111.062,14.3626 116,16.5C 117.816,15.6705 119.649,14.8372 121.5,14C 120.328,13.5814 119.328,12.9147 118.5,12C 124.389,11.8011 130.056,11.9678 135.5,12.5 Z"/></g>
<g><path style="opacity:1" fill="#fca01c" d="M 220.5,66.5 C 220.5,65.5 220.5,64.5 220.5,63.5C 219.448,63.6495 218.448,63.4828 217.5,63C 219.515,61.4447 219.848,59.6114 218.5,57.5C 217.575,58.6405 216.741,58.6405 216,57.5C 214.436,55.3348 214.603,53.6681 216.5,52.5C 212.975,51.863 210.308,50.0297 208.5,47C 204.958,46.5732 201.792,45.4066 199,43.5C 198.439,44.0219 197.772,44.3552 197,44.5C 195.669,43.0042 194.169,41.6709 192.5,40.5C 189.966,41.7883 187.466,41.7883 185,40.5C 182.799,41.9959 180.299,42.9959 177.5,43.5C 177.192,44.3081 176.692,44.9747 176,45.5C 175.749,43.567 175.249,41.7337 174.5,40C 164.483,39.1678 154.483,39.3344 144.5,40.5C 143.032,42.5317 141.365,42.365 139.5,40C 140.833,39.3333 142.167,38.6667 143.5,38C 144.833,37.3333 144.833,36.6667 143.5,36C 140.826,36.1529 138.16,36.6529 135.5,37.5C 135.328,39.4918 135.995,41.1585 137.5,42.5C 136.833,42.8333 136.167,43.1667 135.5,43.5C 132.912,42.4158 130.745,40.7491 129,38.5C 126.76,39.0362 124.927,40.2029 123.5,42C 122.207,42.49 120.873,42.6567 119.5,42.5C 129.944,36.4409 140.611,30.6075 151.5,25C 161.41,22.1736 170.743,23.5069 179.5,29C 191.671,36.2531 204.004,43.2531 216.5,50C 221.188,54.8118 222.522,60.3118 220.5,66.5 Z"/></g>
<g><path style="opacity:1" fill="#fca219" d="M 108.5,25.5 C 101.328,30.5894 93.6612,34.9227 85.5,38.5C 85.1806,34.7002 84.1806,34.5335 82.5,38C 78.8733,38.5637 75.7066,40.0637 73,42.5C 71.8289,41.1068 70.3289,40.2735 68.5,40C 61.5079,39.5004 54.5079,39.3337 47.5,39.5C 47.719,38.325 47.3857,37.325 46.5,36.5C 44.2984,37.7797 42.1317,37.7797 40,36.5C 39.2276,37.8491 38.0609,38.6824 36.5,39C 38.3008,39.3173 38.6341,39.984 37.5,41C 35.8034,41.3845 34.1368,41.2178 32.5,40.5C 42.8285,33.6663 53.4951,27.3329 64.5,21.5C 66.6669,22.198 68.5002,23.5313 70,25.5C 70.9147,24.6721 71.5814,23.6721 72,22.5C 72.3333,22.8333 72.6667,23.1667 73,23.5C 73.899,21.6316 75.399,20.6316 77.5,20.5C 81.1921,21.9439 85.0254,22.9439 89,23.5C 94.5107,24.0392 100.677,23.3725 107.5,21.5C 108.833,21.8333 110.167,22.1667 111.5,22.5C 110.007,23.1411 109.007,24.1411 108.5,25.5 Z"/></g>
<g><path style="opacity:1" fill="#fc9420" d="M 85.5,38.5 C 75.1079,45.4511 64.2746,51.7844 53,57.5C 52.2888,59.3668 52.7888,60.8668 54.5,62C 59.0393,64.7692 63.7059,67.2692 68.5,69.5C 85.427,60.2051 102.427,51.2051 119.5,42.5C 120.873,42.6567 122.207,42.49 123.5,42C 124.927,40.2029 126.76,39.0362 129,38.5C 130.745,40.7491 132.912,42.4158 135.5,43.5C 136.167,43.1667 136.833,42.8333 137.5,42.5C 135.995,41.1585 135.328,39.4918 135.5,37.5C 138.16,36.6529 140.826,36.1529 143.5,36C 144.833,36.6667 144.833,37.3333 143.5,38C 142.167,38.6667 140.833,39.3333 139.5,40C 141.365,42.365 143.032,42.5317 144.5,40.5C 154.483,39.3344 164.483,39.1678 174.5,40C 175.249,41.7337 175.749,43.567 176,45.5C 176.692,44.9747 177.192,44.3081 177.5,43.5C 180.299,42.9959 182.799,41.9959 185,40.5C 187.466,41.7883 189.966,41.7883 192.5,40.5C 194.169,41.6709 195.669,43.0042 197,44.5C 197.772,44.3552 198.439,44.0219 199,43.5C 201.792,45.4066 204.958,46.5732 208.5,47C 210.308,50.0297 212.975,51.863 216.5,52.5C 214.603,53.6681 214.436,55.3348 216,57.5C 216.741,58.6405 217.575,58.6405 218.5,57.5C 219.848,59.6114 219.515,61.4447 217.5,63C 218.448,63.4828 219.448,63.6495 220.5,63.5C 220.5,64.5 220.5,65.5 220.5,66.5C 219.874,69.3149 218.54,71.8149 216.5,74C 211.271,77.1133 205.938,79.9466 200.5,82.5C 198.488,81.9862 196.488,81.8195 194.5,82C 194.957,82.414 195.291,82.914 195.5,83.5C 194.726,84.7112 193.893,84.7112 193,83.5C 192.517,84.448 192.351,85.448 192.5,86.5C 189.133,84.7647 185.633,83.0981 182,81.5C 180.513,82.2529 180.346,83.0862 181.5,84C 180.09,84.3678 179.09,85.2011 178.5,86.5C 181.251,87.016 183.584,88.1827 185.5,90C 183.965,90.4962 182.465,90.3295 181,89.5C 178.914,92.995 176.747,93.1616 174.5,90C 172.167,89.8333 169.833,89.6667 167.5,89.5C 164.713,89.5738 162.213,90.2405 160,91.5C 157.931,90.7362 155.764,90.2362 153.5,90C 153.957,89.586 154.291,89.086 154.5,88.5C 152.155,86.5953 149.488,85.4286 146.5,85C 149.787,83.5325 152.454,81.3659 154.5,78.5C 164.597,72.9472 174.597,67.1139 184.5,61C 184.355,60.228 184.022,59.5613 183.5,59C 177.833,56 172.167,53 166.5,50C 164.833,49.3333 163.167,49.3333 161.5,50C 134.371,64.7321 107.371,79.7321 80.5,95C 70.8455,99.6646 61.1788,99.6646 51.5,95C 39.5,88 27.5,81 15.5,74C 6.63465,63.5231 7.96798,54.5231 19.5,47C 23.7444,44.5723 28.0778,42.4056 32.5,40.5C 34.1368,41.2178 35.8034,41.3845 37.5,41C 38.6341,39.984 38.3008,39.3173 36.5,39C 38.0609,38.6824 39.2276,37.8491 40,36.5C 42.1317,37.7797 44.2984,37.7797 46.5,36.5C 47.3857,37.325 47.719,38.325 47.5,39.5C 54.5079,39.3337 61.5079,39.5004 68.5,40C 70.3289,40.2735 71.8289,41.1068 73,42.5C 75.7066,40.0637 78.8733,38.5637 82.5,38C 84.1806,34.5335 85.1806,34.7002 85.5,38.5 Z"/></g>
<g><path style="opacity:1" fill="#fa8b20" d="M 154.5,78.5 C 152.454,81.3659 149.787,83.5325 146.5,85C 149.488,85.4286 152.155,86.5953 154.5,88.5C 154.291,89.086 153.957,89.586 153.5,90C 155.764,90.2362 157.931,90.7362 160,91.5C 162.213,90.2405 164.713,89.5738 167.5,89.5C 169.833,89.6667 172.167,89.8333 174.5,90C 176.747,93.1616 178.914,92.995 181,89.5C 182.465,90.3295 183.965,90.4962 185.5,90C 183.584,88.1827 181.251,87.016 178.5,86.5C 179.09,85.2011 180.09,84.3678 181.5,84C 180.346,83.0862 180.513,82.2529 182,81.5C 185.633,83.0981 189.133,84.7647 192.5,86.5C 192.351,85.448 192.517,84.448 193,83.5C 193.893,84.7112 194.726,84.7112 195.5,83.5C 195.291,82.914 194.957,82.414 194.5,82C 196.488,81.8195 198.488,81.9862 200.5,82.5C 183.493,92.6723 166.159,102.339 148.5,111.5C 141.705,110.104 134.705,108.77 127.5,107.5C 123.38,109.022 119.214,110.356 115,111.5C 112.828,110.088 110.662,109.588 108.5,110C 106.937,109.241 105.937,108.074 105.5,106.5C 121.011,95.9056 137.345,86.5723 154.5,78.5 Z"/></g>
<g><path style="opacity:1" fill="#ef1e24" d="M -0.5,78.5 C 5.43516,81.1355 11.1018,84.3022 16.5,88C 18.4641,89.451 19.7974,91.2843 20.5,93.5C 21.3226,96.8706 22.4893,100.204 24,103.5C 24.17,113.342 24.67,123.009 25.5,132.5C 45.9077,144.899 66.5744,156.899 87.5,168.5C 84.8333,168.5 82.1667,168.5 79.5,168.5C 79.719,167.325 79.3857,166.325 78.5,165.5C 76.1167,166.462 75.1167,165.462 75.5,162.5C 71.6513,161.331 67.818,159.998 64,158.5C 61.5196,159.514 59.0196,160.014 56.5,160C 56.1667,159.667 55.8333,159.333 55.5,159C 57.4404,159.178 59.107,158.178 60.5,156C 59.062,155.781 57.7287,155.281 56.5,154.5C 57.5063,153.604 57.5063,152.938 56.5,152.5C 54.6675,153.248 53.0009,154.248 51.5,155.5C 44.4844,150.373 40.1511,152.04 38.5,160.5C 37.3279,160.919 36.3279,161.585 35.5,162.5C 37.2844,163.606 39.1178,163.606 41,162.5C 43.2144,162.846 44.7144,164.012 45.5,166C 43.7725,167.961 42.4391,170.128 41.5,172.5C 43.8434,176.52 46.8434,177.186 50.5,174.5C 51.5,174.667 52.5,174.833 53.5,175C 50.9824,177.479 50.9824,179.979 53.5,182.5C 44.3932,177.778 35.3932,172.778 26.5,167.5C 25.5004,187.489 25.167,207.489 25.5,227.5C 14.1517,224.177 5.48506,217.51 -0.5,207.5C -0.5,164.5 -0.5,121.5 -0.5,78.5 Z"/></g>
<g><path style="opacity:0.98" fill="#161616" d="M 514.5,90.5 C 534.619,88.9119 550.619,96.0786 562.5,112C 556.955,116.273 550.955,119.773 544.5,122.5C 532.326,111.312 518.992,109.812 504.5,118C 492.189,131.151 491.522,144.817 502.5,159C 514.861,167.49 527.527,168.156 540.5,161C 543.23,158.87 545.23,156.203 546.5,153C 538.833,152.667 531.167,152.333 523.5,152C 523,151.5 522.5,151 522,150.5C 521.194,144.916 521.361,139.416 522.5,134C 538.074,133.176 553.574,133.343 569,134.5C 570.515,171.652 552.681,189.485 515.5,188C 484.116,181.081 469.949,161.581 473,129.5C 478.987,108.009 492.821,95.0091 514.5,90.5 Z"/></g>
<g><path style="opacity:0.995" fill="#6e6e6e" d="M 729.5,90.5 C 749.741,88.8524 766.574,95.5191 780,110.5C 795.196,135.594 792.029,158.094 770.5,178C 746.459,192.791 723.126,191.791 700.5,175C 683.138,155.447 680.971,134.28 694,111.5C 703.261,100.056 715.095,93.0561 729.5,90.5 Z M 709.5,135.5 C 710.926,122.573 717.926,114.406 730.5,111C 757.85,110.127 769.017,123.294 764,150.5C 757.592,164.291 746.758,170.124 731.5,168C 715.122,163.146 707.788,152.312 709.5,135.5 Z"/></g>
<g><path style="opacity:1" fill="#3c9fee" d="M 242.5,126.5 C 240.708,121.255 239.874,115.588 240,109.5C 239.667,111.167 239.333,112.833 239,114.5C 238.517,113.552 238.351,112.552 238.5,111.5C 236.833,111.5 235.167,111.5 233.5,111.5C 233.5,110.5 233.5,109.5 233.5,108.5C 228.38,107.94 224.046,105.773 220.5,102C 217.042,100.214 213.376,98.8811 209.5,98C 207.088,95.9646 207.755,94.9646 211.5,95C 208.12,94.0623 205.12,94.729 202.5,97C 204.618,97.2602 206.284,98.2602 207.5,100C 204.77,100.728 202.103,100.562 199.5,99.5C 196.122,101.189 192.789,102.855 189.5,104.5C 188.833,104.5 188.167,104.5 187.5,104.5C 197.94,98.1076 208.607,91.9409 219.5,86C 230.656,82.0391 238.156,85.5391 242,96.5C 242.5,106.494 242.666,116.494 242.5,126.5 Z"/></g>
<g><path style="opacity:0.996" fill="#6c6c6c" d="M 800.5,91.5 C 806.509,91.3338 812.509,91.5005 818.5,92C 819.624,92.2492 820.624,92.7492 821.5,93.5C 827.935,102.716 834.601,111.716 841.5,120.5C 848.522,111.637 855.188,102.47 861.5,93C 868.084,91.456 874.751,91.1227 881.5,92C 884.2,92.9492 885.033,94.7825 884,97.5C 873.8,110.734 863.966,124.234 854.5,138C 865,152.5 875.5,167 886,181.5C 886.494,183.134 886.66,184.801 886.5,186.5C 881.499,186.75 876.499,187.083 871.5,187.5C 868.375,187.565 865.375,187.065 862.5,186C 855.915,175.63 848.749,165.797 841,156.5C 833.232,165.86 826.065,175.693 819.5,186C 811.587,186.814 803.754,186.647 796,185.5C 795.333,184.167 795.333,182.833 796,181.5C 806.5,167.167 817,152.833 827.5,138.5C 816.798,124.264 806.465,109.764 796.5,95C 797.591,93.4499 798.924,92.2832 800.5,91.5 Z"/></g>
<g><path style="opacity:0.99" fill="#171717" d="M 407.5,124.5 C 405.381,129.213 402.381,133.38 398.5,137C 412.958,146.381 416.458,158.881 409,174.5C 400.157,183.216 389.491,187.549 377,187.5C 361,186.167 345,186.167 329,187.5C 328,186.833 327,186.167 326,185.5C 325.333,155.167 325.333,124.833 326,94.5C 326.308,93.6919 326.808,93.0253 327.5,92.5C 343.828,91.5181 359.994,91.1848 376,91.5C 386.883,92.0444 396.217,96.0444 404,103.5C 408.192,110.015 409.359,117.015 407.5,124.5 Z M 349.5,109.5 C 359.212,109.214 368.879,109.714 378.5,111C 384.169,113.815 386.002,118.315 384,124.5C 381.658,127.754 378.491,129.588 374.5,130C 366.167,130.667 357.833,130.667 349.5,130C 348.184,123.167 348.184,116.334 349.5,109.5 Z M 349.5,147.5 C 360.888,147.117 372.221,147.617 383.5,149C 389.025,151.919 390.858,156.419 389,162.5C 387.337,164.917 385.171,166.75 382.5,168C 371.873,169.478 361.206,169.812 350.5,169C 348.164,162.031 347.83,154.865 349.5,147.5 Z"/></g>
<g><path style="opacity:0.996" fill="#6d6d6d" d="M 588.5,91.5 C 604.503,91.3334 620.503,91.5001 636.5,92C 651.028,91.6686 661.528,97.8353 668,110.5C 670.066,121.202 666.9,130.035 658.5,137C 671.388,144.283 675.888,155.117 672,169.5C 666.719,179.073 658.552,184.573 647.5,186C 633.661,186.365 619.828,186.865 606,187.5C 599.319,187.059 592.819,186.726 586.5,186.5C 585.852,154.61 586.519,122.943 588.5,91.5 Z M 610.5,109.5 C 619.884,109.184 629.218,109.684 638.5,111C 645.651,114.479 647.151,119.646 643,126.5C 641.829,127.893 640.329,128.727 638.5,129C 628.9,130.391 619.233,130.891 609.5,130.5C 609.81,124.242 609.476,118.076 608.5,112C 609.381,111.292 610.047,110.458 610.5,109.5 Z M 609.5,147.5 C 620.896,147.091 632.23,147.591 643.5,149C 650.255,152.603 651.755,157.769 648,164.5C 646.421,166.041 644.587,167.208 642.5,168C 631.878,169.511 621.211,169.844 610.5,169C 609.833,162.333 609.167,155.667 608.5,149C 609.056,148.617 609.389,148.117 609.5,147.5 Z"/></g>
<g><path style="opacity:1" fill="#161616" d="M 434.5,91.5 C 440.176,91.3339 445.843,91.5006 451.5,92C 452.667,92.5 453.5,93.3333 454,94.5C 454.667,124.5 454.667,154.5 454,184.5C 453.333,185.833 452.333,186.833 451,187.5C 444.134,187.15 437.467,186.15 431,184.5C 430.333,154.5 430.333,124.5 431,94.5C 431.985,93.1859 433.152,92.1859 434.5,91.5 Z"/></g>
<g><path style="opacity:1" fill="#3494eb" d="M 242.5,126.5 C 242.5,135.833 242.5,145.167 242.5,154.5C 241.021,149.606 239.687,144.606 238.5,139.5C 236.139,139.326 233.806,138.993 231.5,138.5C 231.5,137.5 231.5,136.5 231.5,135.5C 228.028,136.037 225.195,135.037 223,132.5C 222.333,133.167 221.667,133.833 221,134.5C 221.012,131.349 220.012,128.682 218,126.5C 217.191,132.744 215.691,138.744 213.5,144.5C 214.825,147.531 214.825,150.531 213.5,153.5C 213.167,153.5 212.833,153.5 212.5,153.5C 212.666,145.826 212.5,138.159 212,130.5C 210.334,127.621 207.834,126.788 204.5,128C 200.256,130.428 195.922,132.594 191.5,134.5C 193.039,132.471 195.039,130.971 197.5,130C 197.043,129.586 196.709,129.086 196.5,128.5C 201.729,127.076 207.063,126.243 212.5,126C 211.146,124.706 209.812,124.54 208.5,125.5C 207.571,124.311 207.238,122.978 207.5,121.5C 202.578,119.67 197.578,118.003 192.5,116.5C 191.571,115.311 191.238,113.978 191.5,112.5C 193.103,112.688 194.437,112.188 195.5,111C 193.634,108.637 191.634,106.47 189.5,104.5C 192.789,102.855 196.122,101.189 199.5,99.5C 202.103,100.562 204.77,100.728 207.5,100C 206.284,98.2602 204.618,97.2602 202.5,97C 205.12,94.729 208.12,94.0623 211.5,95C 207.755,94.9646 207.088,95.9646 209.5,98C 213.376,98.8811 217.042,100.214 220.5,102C 224.046,105.773 228.38,107.94 233.5,108.5C 233.5,109.5 233.5,110.5 233.5,111.5C 235.167,111.5 236.833,111.5 238.5,111.5C 238.351,112.552 238.517,113.552 239,114.5C 239.333,112.833 239.667,111.167 240,109.5C 239.874,115.588 240.708,121.255 242.5,126.5 Z"/></g>
<g><path style="opacity:1" fill="#2e8ae7" d="M 187.5,104.5 C 188.167,104.5 188.833,104.5 189.5,104.5C 191.634,106.47 193.634,108.637 195.5,111C 194.437,112.188 193.103,112.688 191.5,112.5C 191.238,113.978 191.571,115.311 192.5,116.5C 197.578,118.003 202.578,119.67 207.5,121.5C 207.238,122.978 207.571,124.311 208.5,125.5C 209.812,124.54 211.146,124.706 212.5,126C 207.063,126.243 201.729,127.076 196.5,128.5C 196.709,129.086 197.043,129.586 197.5,130C 195.039,130.971 193.039,132.471 191.5,134.5C 190.341,136.25 188.674,137.25 186.5,137.5C 186.649,136.448 186.483,135.448 186,134.5C 184.493,133.495 183.327,132.162 182.5,130.5C 181.186,131.313 180.019,132.313 179,133.5C 174.812,132.495 171.646,130.162 169.5,126.5C 167.591,125.652 165.591,125.318 163.5,125.5C 163.396,120.502 161.729,119.669 158.5,123C 157.207,123.49 155.873,123.657 154.5,123.5C 165.237,116.775 176.237,110.442 187.5,104.5 Z"/></g>
<g><path style="opacity:0.401" fill="#ce3130" d="M 20.5,93.5 C 22.7458,95.6489 24.2458,98.3156 25,101.5C 25.4998,111.828 25.6665,122.161 25.5,132.5C 24.67,123.009 24.17,113.342 24,103.5C 22.4893,100.204 21.3226,96.8706 20.5,93.5 Z"/></g>
<g><path style="opacity:1" fill="#f77722" d="M 105.5,106.5 C 105.937,108.074 106.937,109.241 108.5,110C 110.662,109.588 112.828,110.088 115,111.5C 119.214,110.356 123.38,109.022 127.5,107.5C 134.705,108.77 141.705,110.104 148.5,111.5C 142.669,115.137 136.669,118.637 130.5,122C 128.294,124.037 126.294,126.203 124.5,128.5C 123.596,127.791 123.263,126.791 123.5,125.5C 119.428,127.5 115.095,129.167 110.5,130.5C 107.966,130.434 105.466,130.434 103,130.5C 99.5351,129.105 96.0351,127.772 92.5,126.5C 93.7054,123.55 94.7054,120.55 95.5,117.5C 97.6866,112.796 101.02,109.129 105.5,106.5 Z"/></g>
<g><path style="opacity:0.004" fill="#000000" d="M 407.5,124.5 C 408.833,125.167 408.833,125.167 407.5,124.5 Z"/></g>
<g><path style="opacity:1" fill="#277ee1" d="M 186.5,137.5 C 181.767,140.89 176.767,143.89 171.5,146.5C 171.5,145.5 171.5,144.5 171.5,143.5C 169.167,144.167 166.833,144.833 164.5,145.5C 163.859,141.206 161.525,139.373 157.5,140C 154.58,137.066 155.247,135.566 159.5,135.5C 159.769,133.571 159.269,131.905 158,130.5C 157.667,131.5 157.333,132.5 157,133.5C 156.667,133.167 156.333,132.833 156,132.5C 153.773,134.879 151.273,135.046 148.5,133C 148.833,132.667 149.167,132.333 149.5,132C 147.167,131.333 144.833,131.333 142.5,132C 141.269,133.183 141.269,134.349 142.5,135.5C 145.639,136.392 147.972,138.225 149.5,141C 155.805,142.383 155.472,143.55 148.5,144.5C 148.5,143.5 148.5,142.5 148.5,141.5C 145.518,141.896 142.851,141.229 140.5,139.5C 139.226,142.367 138.393,145.367 138,148.5C 136.25,145.754 135.25,142.754 135,139.5C 134.617,140.056 134.117,140.389 133.5,140.5C 134.619,137.112 136.619,134.279 139.5,132C 144.23,128.636 149.23,125.803 154.5,123.5C 155.873,123.657 157.207,123.49 158.5,123C 161.729,119.669 163.396,120.502 163.5,125.5C 165.591,125.318 167.591,125.652 169.5,126.5C 171.646,130.162 174.812,132.495 179,133.5C 180.019,132.313 181.186,131.313 182.5,130.5C 183.327,132.162 184.493,133.495 186,134.5C 186.483,135.448 186.649,136.448 186.5,137.5 Z"/></g>
<g><path style="opacity:1" fill="#ed5928" d="M 95.5,117.5 C 94.7054,120.55 93.7054,123.55 92.5,126.5C 96.0351,127.772 99.5351,129.105 103,130.5C 105.466,130.434 107.966,130.434 110.5,130.5C 115.095,129.167 119.428,127.5 123.5,125.5C 123.263,126.791 123.596,127.791 124.5,128.5C 121.752,131.732 119.752,135.398 118.5,139.5C 117.778,139.918 117.278,140.584 117,141.5C 116.501,145.152 116.335,148.818 116.5,152.5C 113.292,152.349 110.292,151.016 107.5,148.5C 105.213,145.559 102.713,142.892 100,140.5C 99.3486,138.765 99.5153,137.098 100.5,135.5C 99.2619,133.363 97.4286,132.029 95,131.5C 94.5172,130.552 94.3505,129.552 94.5,128.5C 93.5,128.5 92.5,128.5 91.5,128.5C 89.9371,141.111 89.2705,153.778 89.5,166.5C 89.1667,166.5 88.8333,166.5 88.5,166.5C 87.6833,151.649 88.85,136.982 92,122.5C 92.6972,120.416 93.8639,118.749 95.5,117.5 Z"/></g>
<g><path style="opacity:1" fill="#f34824" d="M 116.5,152.5 C 116.5,160.167 116.5,167.833 116.5,175.5C 115.834,172.311 115.167,168.977 114.5,165.5C 113.833,166.167 113.167,166.833 112.5,167.5C 107.652,164.491 102.485,161.824 97,159.5C 94.6451,157.112 92.6451,154.445 91,151.5C 90.8261,156.684 90.3261,161.684 89.5,166.5C 89.2705,153.778 89.9371,141.111 91.5,128.5C 92.5,128.5 93.5,128.5 94.5,128.5C 94.3505,129.552 94.5172,130.552 95,131.5C 97.4286,132.029 99.2619,133.363 100.5,135.5C 99.5153,137.098 99.3486,138.765 100,140.5C 102.713,142.892 105.213,145.559 107.5,148.5C 110.292,151.016 113.292,152.349 116.5,152.5 Z"/></g>
<g><path style="opacity:1" fill="#2b87e5" d="M 242.5,154.5 C 241.846,171.931 241.18,189.265 240.5,206.5C 240.5,201.5 240.5,196.5 240.5,191.5C 240.886,183.397 240.22,175.397 238.5,167.5C 230.545,164.051 223.211,159.551 216.5,154C 215.552,153.517 214.552,153.351 213.5,153.5C 214.825,150.531 214.825,147.531 213.5,144.5C 215.691,138.744 217.191,132.744 218,126.5C 220.012,128.682 221.012,131.349 221,134.5C 221.667,133.833 222.333,133.167 223,132.5C 225.195,135.037 228.028,136.037 231.5,135.5C 231.5,136.5 231.5,137.5 231.5,138.5C 233.806,138.993 236.139,139.326 238.5,139.5C 239.687,144.606 241.021,149.606 242.5,154.5 Z"/></g>
<g><path style="opacity:1" fill="#1c6edb" d="M 171.5,146.5 C 160.373,151.525 156.039,160.192 158.5,172.5C 158.501,176.681 158.834,180.681 159.5,184.5C 159.179,186.048 158.179,186.715 156.5,186.5C 156.666,181.821 156.499,177.155 156,172.5C 155.056,173.263 154.556,174.263 154.5,175.5C 155.05,178.946 155.217,182.612 155,186.5C 154.167,185.5 153.333,184.5 152.5,183.5C 151.672,179.204 151.172,174.871 151,170.5C 149.844,173.693 149.011,177.026 148.5,180.5C 150.224,183.95 150.891,187.617 150.5,191.5C 149.5,191.5 148.5,191.5 147.5,191.5C 147.665,188.482 147.498,185.482 147,182.5C 144.904,181.285 145.071,180.451 147.5,180C 142.649,177.576 142.315,174.576 146.5,171C 143.659,169.414 140.993,167.58 138.5,165.5C 137.833,167.833 137.167,170.167 136.5,172.5C 135.797,168.13 134.964,163.796 134,159.5C 132.152,164.755 130.985,170.088 130.5,175.5C 130.334,165.161 130.5,154.828 131,144.5C 131.608,142.934 132.442,141.6 133.5,140.5C 134.117,140.389 134.617,140.056 135,139.5C 135.25,142.754 136.25,145.754 138,148.5C 138.393,145.367 139.226,142.367 140.5,139.5C 142.851,141.229 145.518,141.896 148.5,141.5C 148.5,142.5 148.5,143.5 148.5,144.5C 155.472,143.55 155.805,142.383 149.5,141C 147.972,138.225 145.639,136.392 142.5,135.5C 141.269,134.349 141.269,133.183 142.5,132C 144.833,131.333 147.167,131.333 149.5,132C 149.167,132.333 148.833,132.667 148.5,133C 151.273,135.046 153.773,134.879 156,132.5C 156.333,132.833 156.667,133.167 157,133.5C 157.333,132.5 157.667,131.5 158,130.5C 159.269,131.905 159.769,133.571 159.5,135.5C 155.247,135.566 154.58,137.066 157.5,140C 161.525,139.373 163.859,141.206 164.5,145.5C 166.833,144.833 169.167,144.167 171.5,143.5C 171.5,144.5 171.5,145.5 171.5,146.5 Z"/></g>
<g><path style="opacity:1" fill="#247be1" d="M 212.5,153.5 C 212.833,153.5 213.167,153.5 213.5,153.5C 214.552,153.351 215.552,153.517 216.5,154C 223.211,159.551 230.545,164.051 238.5,167.5C 240.22,175.397 240.886,183.397 240.5,191.5C 239.984,193.718 238.984,195.718 237.5,197.5C 232.104,194.24 226.437,191.74 220.5,190C 224.475,187.531 224.141,185.365 219.5,183.5C 218.996,186.342 217.329,187.675 214.5,187.5C 214.5,194.167 214.5,200.833 214.5,207.5C 213.833,199.99 213.167,192.323 212.5,184.5C 210.117,185.462 209.117,184.462 209.5,181.5C 211.167,181.5 212.833,181.5 214.5,181.5C 214.328,179.508 214.995,177.842 216.5,176.5C 215.833,176.167 215.167,175.833 214.5,175.5C 212.664,176.933 210.664,177.433 208.5,177C 207.833,175.667 206.833,174.667 205.5,174C 205.833,173.667 206.167,173.333 206.5,173C 205.809,171.933 205.309,170.766 205,169.5C 203.951,170.517 202.784,170.684 201.5,170C 199.305,168.278 197.972,166.444 197.5,164.5C 194.867,165.782 194.867,167.116 197.5,168.5C 195.635,169.666 193.968,169.333 192.5,167.5C 191.833,168.167 191.167,168.833 190.5,169.5C 189.583,168.873 188.583,168.539 187.5,168.5C 195.632,163.263 203.965,158.263 212.5,153.5 Z"/></g>
<g><path style="opacity:1" fill="#2270d7" d="M 214.5,207.5 C 213.934,214.451 214.601,221.118 216.5,227.5C 215.312,228.684 214.145,228.684 213,227.5C 212.833,214.154 212.333,200.821 211.5,187.5C 205.1,191.699 198.433,195.366 191.5,198.5C 192.905,196.389 194.905,194.889 197.5,194C 195.071,193.549 194.904,192.715 197,191.5C 199.267,192.935 201.267,192.602 203,190.5C 203.36,188.579 204.194,186.912 205.5,185.5C 204.009,184.756 202.509,184.09 201,183.5C 200.222,186.184 198.889,188.517 197,190.5C 190.765,185.725 184.765,180.725 179,175.5C 177.491,176.09 175.991,176.756 174.5,177.5C 171.621,184.421 166.621,186.755 159.5,184.5C 168.5,178.664 177.833,173.331 187.5,168.5C 188.583,168.539 189.583,168.873 190.5,169.5C 191.167,168.833 191.833,168.167 192.5,167.5C 193.968,169.333 195.635,169.666 197.5,168.5C 194.867,167.116 194.867,165.782 197.5,164.5C 197.972,166.444 199.305,168.278 201.5,170C 202.784,170.684 203.951,170.517 205,169.5C 205.309,170.766 205.809,171.933 206.5,173C 206.167,173.333 205.833,173.667 205.5,174C 206.833,174.667 207.833,175.667 208.5,177C 210.664,177.433 212.664,176.933 214.5,175.5C 215.167,175.833 215.833,176.167 216.5,176.5C 214.995,177.842 214.328,179.508 214.5,181.5C 212.833,181.5 211.167,181.5 209.5,181.5C 209.117,184.462 210.117,185.462 212.5,184.5C 213.167,192.323 213.833,199.99 214.5,207.5 Z"/></g>
<g><path style="opacity:1" fill="#1664d9" d="M 159.5,184.5 C 166.621,186.755 171.621,184.421 174.5,177.5C 175.991,176.756 177.491,176.09 179,175.5C 184.765,180.725 190.765,185.725 197,190.5C 198.889,188.517 200.222,186.184 201,183.5C 202.509,184.09 204.009,184.756 205.5,185.5C 204.194,186.912 203.36,188.579 203,190.5C 201.267,192.602 199.267,192.935 197,191.5C 194.904,192.715 195.071,193.549 197.5,194C 194.905,194.889 192.905,196.389 191.5,198.5C 181.199,205.322 170.533,211.656 159.5,217.5C 157.091,214.115 153.757,211.949 149.5,211C 146.96,208.795 144.793,206.295 143,203.5C 142.935,205.883 142.102,206.55 140.5,205.5C 139.808,206.025 139.308,206.692 139,207.5C 136.818,205.429 135.152,201.762 134,196.5C 133.963,201.636 132.796,206.302 130.5,210.5C 130.5,198.833 130.5,187.167 130.5,175.5C 130.985,170.088 132.152,164.755 134,159.5C 134.964,163.796 135.797,168.13 136.5,172.5C 137.167,170.167 137.833,167.833 138.5,165.5C 140.993,167.58 143.659,169.414 146.5,171C 142.315,174.576 142.649,177.576 147.5,180C 145.071,180.451 144.904,181.285 147,182.5C 147.498,185.482 147.665,188.482 147.5,191.5C 148.5,191.5 149.5,191.5 150.5,191.5C 150.891,187.617 150.224,183.95 148.5,180.5C 149.011,177.026 149.844,173.693 151,170.5C 151.172,174.871 151.672,179.204 152.5,183.5C 153.333,184.5 154.167,185.5 155,186.5C 155.217,182.612 155.05,178.946 154.5,175.5C 154.556,174.263 155.056,173.263 156,172.5C 156.499,177.155 156.666,181.821 156.5,186.5C 158.179,186.715 159.179,186.048 159.5,184.5 Z"/></g>
<g><path style="opacity:1" fill="#1c6edd" d="M 240.5,191.5 C 240.5,196.5 240.5,201.5 240.5,206.5C 239.29,211.232 236.623,215.066 232.5,218C 226.974,220.926 221.641,224.093 216.5,227.5C 214.601,221.118 213.934,214.451 214.5,207.5C 214.5,200.833 214.5,194.167 214.5,187.5C 217.329,187.675 218.996,186.342 219.5,183.5C 224.141,185.365 224.475,187.531 220.5,190C 226.437,191.74 232.104,194.24 237.5,197.5C 238.984,195.718 239.984,193.718 240.5,191.5 Z"/></g>
<g><path style="opacity:1" fill="#fb2125" d="M 116.5,175.5 C 116.5,210.167 116.5,244.833 116.5,279.5C 115.5,279.5 114.5,279.5 113.5,279.5C 107.332,276.152 101.499,272.152 96,267.5C 92.9457,264.058 90.9457,260.058 90,255.5C 89.6667,238.167 89.3333,220.833 89,203.5C 77.2576,196.238 65.4242,189.238 53.5,182.5C 50.9824,179.979 50.9824,177.479 53.5,175C 52.5,174.833 51.5,174.667 50.5,174.5C 46.8434,177.186 43.8434,176.52 41.5,172.5C 42.4391,170.128 43.7725,167.961 45.5,166C 44.7144,164.012 43.2144,162.846 41,162.5C 39.1178,163.606 37.2844,163.606 35.5,162.5C 36.3279,161.585 37.3279,160.919 38.5,160.5C 40.1511,152.04 44.4844,150.373 51.5,155.5C 53.0009,154.248 54.6675,153.248 56.5,152.5C 57.5063,152.938 57.5063,153.604 56.5,154.5C 57.7287,155.281 59.062,155.781 60.5,156C 59.107,158.178 57.4404,159.178 55.5,159C 55.8333,159.333 56.1667,159.667 56.5,160C 59.0196,160.014 61.5196,159.514 64,158.5C 67.818,159.998 71.6513,161.331 75.5,162.5C 75.1167,165.462 76.1167,166.462 78.5,165.5C 79.3857,166.325 79.719,167.325 79.5,168.5C 82.1667,168.5 84.8333,168.5 87.5,168.5C 88.3382,168.158 88.6716,167.492 88.5,166.5C 88.8333,166.5 89.1667,166.5 89.5,166.5C 90.3261,161.684 90.8261,156.684 91,151.5C 92.6451,154.445 94.6451,157.112 97,159.5C 102.485,161.824 107.652,164.491 112.5,167.5C 113.167,166.833 113.833,166.167 114.5,165.5C 115.167,168.977 115.834,172.311 116.5,175.5 Z"/></g>
<g><path style="opacity:0.409" fill="#d13b36" d="M 118.5,139.5 C 117.52,186.143 117.186,232.81 117.5,279.5C 117.167,279.5 116.833,279.5 116.5,279.5C 116.5,244.833 116.5,210.167 116.5,175.5C 116.5,167.833 116.5,160.167 116.5,152.5C 116.335,148.818 116.501,145.152 117,141.5C 117.278,140.584 117.778,139.918 118.5,139.5 Z"/></g>
<g><path style="opacity:1" fill="#0f55d2" d="M 159.5,217.5 C 159.667,228.172 159.5,238.839 159,249.5C 158.721,252.457 157.887,255.123 156.5,257.5C 156.665,254.15 156.498,250.817 156,247.5C 155.667,248.833 155.333,250.167 155,251.5C 152.719,247.662 150.219,243.995 147.5,240.5C 145.659,239.77 143.825,239.103 142,238.5C 141.138,240.087 140.471,241.754 140,243.5C 139.667,241.167 139.333,238.833 139,236.5C 138.667,237.833 138.333,239.167 138,240.5C 137.667,240.167 137.333,239.833 137,239.5C 135.876,233.897 135.21,228.231 135,222.5C 133.859,226.993 133.359,231.66 133.5,236.5C 133.565,241.691 133.898,246.858 134.5,252C 134.231,253.607 133.397,254.774 132,255.5C 131.169,261.859 131.336,268.193 132.5,274.5C 132.658,271.283 132.825,267.95 133,264.5C 133.287,266.891 133.787,269.224 134.5,271.5C 135.325,272.386 136.325,272.719 137.5,272.5C 135.911,274.306 133.911,275.639 131.5,276.5C 130.5,254.51 130.167,232.51 130.5,210.5C 132.796,206.302 133.963,201.636 134,196.5C 135.152,201.762 136.818,205.429 139,207.5C 139.308,206.692 139.808,206.025 140.5,205.5C 142.102,206.55 142.935,205.883 143,203.5C 144.793,206.295 146.96,208.795 149.5,211C 153.757,211.949 157.091,214.115 159.5,217.5 Z"/></g>
<g><path style="opacity:0.004" fill="#000000" d="M 699.5,219.5 C 700.833,220.167 700.833,220.167 699.5,219.5 Z"/></g>
<g><path style="opacity:0.004" fill="#000000" d="M 836.5,219.5 C 837.833,220.167 837.833,220.167 836.5,219.5 Z"/></g>
<g><path style="opacity:0.656" fill="#6b6b6b" d="M 568.5,219.5 C 569.822,219.33 570.989,219.663 572,220.5C 572.5,232.162 572.667,243.829 572.5,255.5C 571.167,255.5 569.833,255.5 568.5,255.5C 568.5,243.5 568.5,231.5 568.5,219.5 Z"/></g>
<g><path style="opacity:0.675" fill="#626363" d="M 702.5,219.5 C 707.197,220.874 707.531,222.874 703.5,225.5C 700.025,223.916 699.692,221.916 702.5,219.5 Z"/></g>
<g><path style="opacity:0.561" fill="#5c5c5c" d="M 459.5,219.5 C 463.267,221.326 463.433,223.326 460,225.5C 456.911,223.796 456.745,221.796 459.5,219.5 Z"/></g>
<g><path style="opacity:0.703" fill="#636363" d="M 657.5,219.5 C 661.267,221.326 661.433,223.326 658,225.5C 654.911,223.796 654.745,221.796 657.5,219.5 Z"/></g>
<g><path style="opacity:0.004" fill="#000000" d="M 826.5,221.5 C 827.833,222.167 827.833,222.167 826.5,221.5 Z"/></g>
<g><path style="opacity:0.634" fill="#626263" d="M 843.5,219.5 C 847.267,221.326 847.433,223.326 844,225.5C 840.911,223.796 840.745,221.796 843.5,219.5 Z"/></g>
<g><path style="opacity:0.675" fill="#676766" d="M 644.5,219.5 C 646.167,219.5 647.833,219.5 649.5,219.5C 649.5,229.167 649.5,238.833 649.5,248.5C 647.833,248.5 646.167,248.5 644.5,248.5C 644.5,238.833 644.5,229.167 644.5,219.5 Z"/></g>
<g><path style="opacity:1" fill="#666668" d="M 821.5,219.5 C 826.531,221.205 826.698,223.205 822,225.5C 818.897,223.888 818.73,221.888 821.5,219.5 Z"/></g>
<g><path style="opacity:0.004" fill="#000000" d="M 817.5,223.5 C 818.833,224.167 818.833,224.167 817.5,223.5 Z"/></g>
<g><path style="opacity:0.004" fill="#000000" d="M 847.5,223.5 C 848.833,224.167 848.833,224.167 847.5,223.5 Z"/></g>
<g><path style="opacity:0.004" fill="#000000" d="M 816.5,225.5 C 817.833,226.167 817.833,226.167 816.5,225.5 Z"/></g>
<g><path style="opacity:0.004" fill="#000000" d="M 530.5,226.5 C 531.833,227.167 531.833,227.167 530.5,226.5 Z"/></g>
<g><path style="opacity:0.004" fill="#000000" d="M 679.5,226.5 C 680.833,227.167 680.833,227.167 679.5,226.5 Z"/></g>
<g><path style="opacity:0.004" fill="#000000" d="M 472.5,228.5 C 471.833,227.167 471.833,227.167 472.5,228.5 Z"/></g>
<g><path style="opacity:0.004" fill="#000000" d="M 490.5,227.5 C 491.833,228.167 491.833,228.167 490.5,227.5 Z"/></g>
<g><path style="opacity:0.594" fill="#676767" d="M 627.5,227.5 C 639.017,228.87 642.517,234.87 638,245.5C 631.447,249.957 625.447,249.29 620,243.5C 617.431,235.682 619.931,230.349 627.5,227.5 Z M 627.5,231.5 C 634.99,231.82 637.49,235.486 635,242.5C 631.891,245.74 628.558,246.074 625,243.5C 622.523,238.669 623.356,234.669 627.5,231.5 Z"/></g>
<g><path style="opacity:0.004" fill="#000000" d="M 668.5,228.5 C 667.833,227.167 667.833,227.167 668.5,228.5 Z"/></g>
<g><path style="opacity:0.6" fill="#676767" d="M 668.5,228.5 C 672.851,226.97 676.851,227.636 680.5,230.5C 680,231.5 679.5,232.5 679,233.5C 675.291,230.677 671.791,230.843 668.5,234C 671.455,236.072 674.788,237.405 678.5,238C 682.566,241.745 682.233,245.078 677.5,248C 673.129,248.629 668.796,248.463 664.5,247.5C 664.5,246.167 664.5,244.833 664.5,243.5C 667.344,244.058 670.178,244.725 673,245.5C 676.876,245.051 677.71,243.551 675.5,241C 671.366,240.848 667.866,239.348 665,236.5C 663.78,232.707 664.947,230.04 668.5,228.5 Z"/></g>
<g><path style="opacity:0.784" fill="#5f5f5f" d="M 686.5,223.5 C 687.833,223.5 689.167,223.5 690.5,223.5C 690.5,224.833 690.5,226.167 690.5,227.5C 694.241,226.599 696.241,227.932 696.5,231.5C 694.5,231.5 692.5,231.5 690.5,231.5C 690.334,235.846 690.501,240.179 691,244.5C 692.458,245.747 693.958,245.747 695.5,244.5C 697.488,245.289 697.821,246.455 696.5,248C 689.14,250.299 685.473,247.632 685.5,240C 685.787,237.051 686.12,234.385 686.5,232C 685.207,231.51 683.873,231.343 682.5,231.5C 682.22,228.612 683.553,227.112 686.5,227C 685.316,225.855 685.316,224.688 686.5,223.5 Z"/></g>
<g><path style="opacity:0.814" fill="#525252" d="M 745.5,219.5 C 746.5,219.5 747.5,219.5 748.5,219.5C 748.5,231.5 748.5,243.5 748.5,255.5C 747.167,255.5 745.833,255.5 744.5,255.5C 744.188,243.42 744.521,231.42 745.5,219.5 Z"/></g>
<g><path style="opacity:0.599" fill="#666666" d="M 775.5,221.5 C 776.978,221.238 778.311,221.571 779.5,222.5C 783.737,230.968 787.403,239.635 790.5,248.5C 789.022,248.762 787.689,248.429 786.5,247.5C 785.499,242.142 782.332,240.142 777,241.5C 774.833,241.667 772.667,241.833 770.5,242C 769.692,244.088 768.692,246.088 767.5,248C 766.056,248.781 764.723,248.614 763.5,247.5C 767.088,238.598 771.088,229.932 775.5,221.5 Z M 776.5,226.5 C 778.328,230.319 780.328,234.153 782.5,238C 778.833,238.667 775.167,238.667 771.5,238C 774.397,234.706 776.064,230.872 776.5,226.5 Z"/></g>
<g><path style="opacity:0.741" fill="#646464" d="M 420.5,227.5 C 422.044,227.703 423.378,228.37 424.5,229.5C 426.167,228.833 427.833,228.167 429.5,227.5C 430.429,228.689 430.762,230.022 430.5,231.5C 427.439,231.444 425.272,232.778 424,235.5C 423.501,239.821 423.334,244.154 423.5,248.5C 422.167,248.5 420.833,248.5 419.5,248.5C 419.205,241.412 419.538,234.412 420.5,227.5 Z"/></g>
<g><path style="opacity:0.004" fill="#000000" d="M 619.5,229.5 C 620.833,230.167 620.833,230.167 619.5,229.5 Z"/></g>
<g><path style="opacity:0.549" fill="#6d6c6c" d="M 820.5,227.5 C 821.822,227.33 822.989,227.663 824,228.5C 824.5,235.158 824.666,241.825 824.5,248.5C 823.167,248.5 821.833,248.5 820.5,248.5C 820.5,241.5 820.5,234.5 820.5,227.5 Z"/></g>
<g><path style="opacity:0.473" fill="#686868" d="M 842.5,227.5 C 843.822,227.33 844.989,227.663 846,228.5C 846.5,235.158 846.666,241.825 846.5,248.5C 844.833,248.5 843.167,248.5 841.5,248.5C 841.205,241.412 841.538,234.412 842.5,227.5 Z"/></g>
<g><path style="opacity:0.67" fill="#696969" d="M 853.5,223.5 C 854.833,223.5 856.167,223.5 857.5,223.5C 857.5,224.833 857.5,226.167 857.5,227.5C 861.241,226.599 863.241,227.932 863.5,231.5C 861.5,231.5 859.5,231.5 857.5,231.5C 857.334,235.846 857.501,240.179 858,244.5C 859.458,245.747 860.958,245.747 862.5,244.5C 864.488,245.289 864.821,246.455 863.5,248C 860.007,249.004 856.841,248.504 854,246.5C 853.501,241.511 853.334,236.511 853.5,231.5C 852.167,231.5 850.833,231.5 849.5,231.5C 849.167,228.5 850.5,227.167 853.5,227.5C 853.5,226.167 853.5,224.833 853.5,223.5 Z"/></g>
<g><path style="opacity:0.004" fill="#000000" d="M 515.5,230.5 C 516.833,231.167 516.833,231.167 515.5,230.5 Z"/></g>
<g><path style="opacity:0.663" fill="#6a6a6a" d="M 590.5,221.5 C 591.833,221.5 593.167,221.5 594.5,221.5C 594.5,225.167 594.5,228.833 594.5,232.5C 599.5,232.5 604.5,232.5 609.5,232.5C 609.5,228.833 609.5,225.167 609.5,221.5C 610.833,221.5 612.167,221.5 613.5,221.5C 613.5,230.5 613.5,239.5 613.5,248.5C 612.167,248.5 610.833,248.5 609.5,248.5C 609.5,244.833 609.5,241.167 609.5,237.5C 604.5,237.5 599.5,237.5 594.5,237.5C 594.5,241.167 594.5,244.833 594.5,248.5C 593.167,248.5 591.833,248.5 590.5,248.5C 590.5,239.5 590.5,230.5 590.5,221.5 Z"/></g>
<g><path style="opacity:0.828" fill="#666665" d="M 655.5,227.5 C 656.833,227.5 658.167,227.5 659.5,227.5C 659.5,234.5 659.5,241.5 659.5,248.5C 658.167,248.5 656.833,248.5 655.5,248.5C 655.5,241.5 655.5,234.5 655.5,227.5 Z"/></g>
<g><path style="opacity:0.816" fill="#686868" d="M 800.5,227.5 C 803.313,227.548 805.979,228.215 808.5,229.5C 809.749,227.525 811.249,227.191 813,228.5C 813.667,235.833 813.667,243.167 813,250.5C 808.732,256.253 803.232,257.753 796.5,255C 793.33,253.83 792.83,251.997 795,249.5C 799.196,252.748 803.529,253.081 808,250.5C 809.187,248.956 809.52,247.289 809,245.5C 802.826,249.461 797.493,248.461 793,242.5C 790.793,234.912 793.293,229.912 800.5,227.5 Z M 800.5,231.5 C 808.845,231.691 811.178,235.524 807.5,243C 799.975,245.849 796.475,243.349 797,235.5C 797.69,233.65 798.856,232.316 800.5,231.5 Z"/></g>
<g><path style="opacity:0.008" fill="#7f807f" d="M 858.5,232.5 C 859.833,233.167 859.833,233.167 858.5,232.5 Z"/></g>
<g><path style="opacity:0.004" fill="#000000" d="M 865.5,232.5 C 864.833,233.167 864.833,233.167 865.5,232.5 Z"/></g>
<g><path style="opacity:0.656" fill="#676767" d="M 865.5,232.5 C 864.962,230.883 864.629,229.216 864.5,227.5C 866.903,227.393 868.736,228.393 870,230.5C 871.667,234.5 873.333,238.5 875,242.5C 877.519,237.956 879.852,233.289 882,228.5C 883.011,227.663 884.178,227.33 885.5,227.5C 882.739,237.19 878.739,246.357 873.5,255C 870.5,255.667 867.5,255.667 864.5,255C 863.159,253.174 863.659,252.007 866,251.5C 869.707,253.156 872.207,251.99 873.5,248C 871.202,242.568 868.535,237.402 865.5,232.5 Z"/></g>
<g><path style="opacity:0.004" fill="#000000" d="M 869.5,227.5 C 870.833,228.167 870.833,228.167 869.5,227.5 Z"/></g>
<g><path style="opacity:0.004" fill="#000000" d="M 392.5,233.5 C 393.833,234.167 393.833,234.167 392.5,233.5 Z"/></g>
<g><path style="opacity:0.004" fill="#000000" d="M 850.5,234.5 C 850.897,233.475 851.563,233.308 852.5,234C 851.906,234.464 851.239,234.631 850.5,234.5 Z"/></g>
<g><path style="opacity:0.496" fill="#646464" d="M 333.5,221.5 C 337.582,221.344 341.582,221.844 345.5,223C 346.337,224.011 346.67,225.178 346.5,226.5C 342.524,225.669 338.524,225.503 334.5,226C 331.301,227.679 330.967,229.679 333.5,232C 338.564,232.552 343.064,234.385 347,237.5C 348.645,242.475 347.145,245.975 342.5,248C 337.64,248.968 332.974,248.468 328.5,246.5C 327.571,245.311 327.238,243.978 327.5,242.5C 330.807,243.481 334.14,244.481 337.5,245.5C 342.573,245.619 344.24,243.452 342.5,239C 337.896,238.077 333.563,236.41 329.5,234C 326.141,228.279 327.474,224.112 333.5,221.5 Z"/></g>
<g><path style="opacity:0.004" fill="#000000" d="M 676.5,234.5 C 677.833,235.167 677.833,235.167 676.5,234.5 Z"/></g>
<g><path style="opacity:1" fill="#0a4ed0" d="M 156.5,257.5 C 155.474,260.372 153.808,262.872 151.5,265C 146.938,267.78 142.272,270.28 137.5,272.5C 136.325,272.719 135.325,272.386 134.5,271.5C 133.787,269.224 133.287,266.891 133,264.5C 132.825,267.95 132.658,271.283 132.5,274.5C 131.336,268.193 131.169,261.859 132,255.5C 133.397,254.774 134.231,253.607 134.5,252C 133.898,246.858 133.565,241.691 133.5,236.5C 133.359,231.66 133.859,226.993 135,222.5C 135.21,228.231 135.876,233.897 137,239.5C 137.333,239.833 137.667,240.167 138,240.5C 138.333,239.167 138.667,237.833 139,236.5C 139.333,238.833 139.667,241.167 140,243.5C 140.471,241.754 141.138,240.087 142,238.5C 143.825,239.103 145.659,239.77 147.5,240.5C 150.219,243.995 152.719,247.662 155,251.5C 155.333,250.167 155.667,248.833 156,247.5C 156.498,250.817 156.665,254.15 156.5,257.5 Z"/></g>
<g><path style="opacity:0.829" fill="#666666" d="M 458.5,227.5 C 459.822,227.33 460.989,227.663 462,228.5C 462.5,235.158 462.666,241.825 462.5,248.5C 461.167,248.5 459.833,248.5 458.5,248.5C 458.5,241.5 458.5,234.5 458.5,227.5 Z"/></g>
<g><path style="opacity:0.004" fill="#000000" d="M 663.5,237.5 C 664.833,238.167 664.833,238.167 663.5,237.5 Z"/></g>
<g><path style="opacity:0.829" fill="#676767" d="M 530.5,227.5 C 531.234,228.708 531.567,230.041 531.5,231.5C 529.5,231.5 527.5,231.5 525.5,231.5C 525.334,235.846 525.501,240.179 526,244.5C 527.458,245.747 528.958,245.747 530.5,244.5C 534.973,247.902 534.306,249.235 528.5,248.5C 526.833,248.333 525.167,248.167 523.5,248C 522.874,247.25 522.374,246.416 522,245.5C 521.501,240.845 521.334,236.179 521.5,231.5C 520.167,231.5 518.833,231.5 517.5,231.5C 517.176,228.306 518.342,227.306 521,228.5C 521.494,226.866 521.66,225.199 521.5,223.5C 522.833,223.5 524.167,223.5 525.5,223.5C 525.34,225.199 525.506,226.866 526,228.5C 527.356,227.62 528.856,227.286 530.5,227.5 Z"/></g>
<g><path style="opacity:0.643" fill="#696969" d="M 495.5,227.5 C 496.5,227.5 497.5,227.5 498.5,227.5C 498.351,228.552 498.517,229.552 499,230.5C 503.943,226.397 508.609,226.731 513,231.5C 514.404,237.044 514.904,242.71 514.5,248.5C 513.167,248.5 511.833,248.5 510.5,248.5C 510.666,244.154 510.499,239.821 510,235.5C 506.812,230.334 503.312,230.168 499.5,235C 498.588,239.446 498.255,243.946 498.5,248.5C 497.167,248.5 495.833,248.5 494.5,248.5C 494.205,241.412 494.538,234.412 495.5,227.5 Z"/></g>
<g><path style="opacity:0.58" fill="#666666" d="M 359.5,227.5 C 369.078,227.962 372.911,232.962 371,242.5C 369.833,245 368,246.833 365.5,248C 353.245,249.673 348.745,244.506 352,232.5C 354.17,230.177 356.67,228.51 359.5,227.5 Z M 358.5,231.5 C 366.28,231.383 368.946,235.049 366.5,242.5C 360.522,246.672 356.522,245.172 354.5,238C 355.25,235.429 356.583,233.262 358.5,231.5 Z"/></g>
<g><path style="opacity:0.754" fill="#626262" d="M 441.5,227.5 C 449.799,227.949 453.466,232.115 452.5,240C 447.467,240.171 442.467,240.671 437.5,241.5C 441.261,246.245 445.427,246.578 450,242.5C 452.17,244.997 451.67,246.83 448.5,248C 435.704,250.205 430.87,245.038 434,232.5C 436.17,230.177 438.67,228.51 441.5,227.5 Z M 440.5,231.5 C 444.224,230.773 446.891,232.106 448.5,235.5C 444.893,236.489 441.226,236.823 437.5,236.5C 437.721,234.336 438.721,232.67 440.5,231.5 Z"/></g>
<g><path style="opacity:0.797" fill="#646464" d="M 372.5,227.5 C 374.714,227.291 376.381,228.124 377.5,230C 379.529,234.42 381.362,238.92 383,243.5C 385,238.833 387,234.167 389,229.5C 390.11,227.963 391.61,227.297 393.5,227.5C 391.406,234.36 388.74,241.027 385.5,247.5C 383.955,248.452 382.288,248.785 380.5,248.5C 377.833,241.5 375.167,234.5 372.5,227.5 Z"/></g>
<g><path style="opacity:0.004" fill="#000000" d="M 670.5,242.5 C 671.833,243.167 671.833,243.167 670.5,242.5 Z"/></g>
<g><path style="opacity:0.004" fill="#000000" d="M 693.5,242.5 C 694.833,243.167 694.833,243.167 693.5,242.5 Z"/></g>
<g><path style="opacity:0.004" fill="#000000" d="M 790.5,242.5 C 791.833,243.167 791.833,243.167 790.5,242.5 Z"/></g>
<g><path style="opacity:0.621" fill="#656565" d="M 402.5,227.5 C 411.452,227.306 415.119,231.473 413.5,240C 408.23,240.404 403.23,240.571 398.5,240.5C 399.941,243.107 402.107,244.774 405,245.5C 407.437,244.346 409.937,243.846 412.5,244C 412.959,245.943 411.959,247.276 409.5,248C 398,249.833 393.167,245 395,233.5C 396.707,230.41 399.207,228.41 402.5,227.5 Z M 402.5,231.5 C 406.224,230.773 408.891,232.106 410.5,235.5C 406.541,236.66 402.541,236.827 398.5,236C 399.357,233.981 400.691,232.481 402.5,231.5 Z"/></g>
<g><path style="opacity:0.742" fill="#666766" d="M 700.5,228.5 C 701.919,227.549 703.585,227.216 705.5,227.5C 705.5,234.5 705.5,241.5 705.5,248.5C 704.167,248.5 702.833,248.5 701.5,248.5C 701.824,241.646 701.491,234.979 700.5,228.5 Z"/></g>
<g><path style="opacity:0.865" fill="#6b6b6b" d="M 831.5,219.5 C 832.833,219.5 834.167,219.5 835.5,219.5C 835.5,229.167 835.5,238.833 835.5,248.5C 834.167,248.5 832.833,248.5 831.5,248.5C 831.5,238.833 831.5,229.167 831.5,219.5 Z"/></g>
<g><path style="opacity:0.587" fill="#656565" d="M 472.5,228.5 C 476.177,226.961 479.677,227.294 483,229.5C 484.11,227.963 485.61,227.297 487.5,227.5C 487.666,235.507 487.5,243.507 487,251.5C 485.067,254.545 482.234,256.212 478.5,256.5C 476.224,255.787 473.891,255.287 471.5,255C 468.33,253.83 467.83,251.997 470,249.5C 473.177,251.783 476.677,252.617 480.5,252C 483.2,251.051 484.033,249.217 483,246.5C 472.074,250.033 466.741,246.033 467,234.5C 468.36,231.977 470.193,229.977 472.5,228.5 Z M 481.5,242.5 C 476.246,245.554 472.579,244.054 470.5,238C 472.635,231.372 476.635,229.872 482.5,233.5C 483.652,236.106 483.818,238.773 483,241.5C 482.617,242.056 482.117,242.389 481.5,242.5 Z"/></g>
<g><path style="opacity:0.754" fill="#656565" d="M 719.5,227.5 C 723.656,227.578 726.989,229.245 729.5,232.5C 728.672,233.415 727.672,234.081 726.5,234.5C 722.224,230.325 718.391,230.659 715,235.5C 713.412,240.99 715.412,244.324 721,245.5C 723.411,244.013 725.911,243.179 728.5,243C 729.412,245.488 728.412,247.155 725.5,248C 713.104,249.608 708.604,244.441 712,232.5C 714.17,230.177 716.67,228.51 719.5,227.5 Z"/></g>
<g><path style="opacity:0.771" fill="#666666" d="M 533.5,227.5 C 535.311,227.572 536.644,228.405 537.5,230C 539.471,234.108 541.304,238.275 543,242.5C 545.861,238.112 548.194,233.446 550,228.5C 551.011,227.663 552.178,227.33 553.5,227.5C 550.722,237.221 546.722,246.388 541.5,255C 538.518,255.498 535.518,255.665 532.5,255.5C 532.5,254.167 532.5,252.833 532.5,251.5C 536.757,253.581 539.757,252.414 541.5,248C 538.121,241.873 535.121,235.539 532.5,229C 533.056,228.617 533.389,228.117 533.5,227.5 Z"/></g>
<g><path style="opacity:0.004" fill="#000000" d="M 541.5,234.5 C 542.833,235.167 542.833,235.167 541.5,234.5 Z"/></g>
</svg>
